<svg width="160" height="160" viewBox="0 0 160 160" fill="none" xmlns="http://www.w3.org/2000/svg">
<path d="M52.1185 7.90271C51.8755 7.41638 51.3895 7.17321 50.9036 7.05163C50.2961 6.93005 49.8102 7.05164 49.0813 7.2948C48.5953 7.53796 48.2308 7.78113 47.9878 8.02429C47.7449 8.26745 47.5019 8.63218 47.5019 8.99692C47.3804 9.36166 47.5019 9.72639 47.6234 9.96955C47.7449 10.2127 47.8664 10.4559 48.1093 10.5775C48.3523 10.699 48.5953 10.8206 48.8383 10.8206C49.0812 10.8206 49.3242 10.8206 49.6887 10.8206C49.9317 10.8206 50.1746 10.8206 50.4176 10.699L51.6325 10.5775C51.8755 10.5775 52.2399 10.4559 52.6044 10.4559C52.9689 10.4559 53.3333 10.4559 53.8193 10.5775C54.1838 10.699 54.5482 10.8206 54.9127 11.0638C55.2771 11.307 55.5201 11.6717 55.7631 12.158C56.0061 12.7659 56.1276 13.2522 56.0061 13.8601C55.8846 14.468 55.6416 14.9544 55.1557 15.4407C54.6697 15.927 54.0623 16.4133 53.3333 16.6565C52.6044 17.0212 51.8755 17.1428 51.268 17.1428C50.6606 17.1428 50.0532 17.0212 49.5672 16.6565C49.0813 16.4133 48.7168 15.927 48.3523 15.4407L49.6887 14.8328C49.9317 15.1975 50.1746 15.4407 50.5391 15.6839C50.9036 15.8054 51.268 15.927 51.6325 15.927C51.9969 15.927 52.4829 15.8054 52.8474 15.5623C53.3333 15.3191 53.6978 15.0759 54.0622 14.8328C54.4267 14.468 54.5482 14.1033 54.6697 13.7386C54.7912 13.3738 54.7912 13.0091 54.5482 12.6443C54.4267 12.2796 54.1838 12.0364 53.9408 11.9148C53.6978 11.7933 53.3333 11.6717 52.9689 11.6717C52.6044 11.6717 52.2399 11.6717 51.754 11.7933L50.2961 11.9148C49.4457 12.0364 48.5953 11.9148 47.9878 11.7933C47.3804 11.5501 46.8945 11.0638 46.53 10.4559C46.287 9.848 46.1655 9.24007 46.4085 8.75375C46.53 8.14584 46.773 7.65954 47.2589 7.17321C47.7449 6.68689 48.2308 6.32216 48.9598 6.079C49.6887 5.83584 50.2961 5.71423 50.9036 5.71423C51.511 5.71423 52.1185 5.83584 52.6044 6.20059C53.0904 6.44375 53.4548 6.93007 53.6978 7.41639L52.1185 7.90271Z" fill="#2E312B"/>
<path d="M67.3045 4.37693L65.9681 4.74166C65.8466 4.37691 65.6037 4.01219 65.3607 3.76903C65.1177 3.52587 64.7532 3.2827 64.5103 3.16112C64.1458 3.03954 63.9028 2.91795 63.5384 2.91795C63.1739 2.91795 62.8094 2.91796 62.445 3.03954C61.8375 3.16112 61.2301 3.52584 60.7441 4.01217C60.2582 4.49849 60.0152 5.10639 59.7722 5.83587C59.6507 6.56536 59.6507 7.41643 59.8937 8.38907C60.1367 9.36172 60.5012 10.0912 60.9871 10.6991C61.4731 11.307 61.959 11.6717 62.5664 11.9149C63.1739 12.1581 63.7813 12.1581 64.5103 12.0365C64.8747 11.9149 65.2392 11.7933 65.4822 11.6718C65.8467 11.5502 66.0896 11.307 66.3326 11.0639C66.5756 10.8207 66.697 10.4559 66.8185 10.2128C66.94 9.84804 67.0615 9.4833 66.94 9.11856L68.2764 8.7538C68.2764 9.3617 68.2764 9.84805 68.0334 10.3344C67.9119 10.8207 67.669 11.307 67.3045 11.6718C66.94 12.0365 66.5756 12.4012 66.0896 12.6444C65.6037 12.8876 65.1177 13.1307 64.6318 13.2523C63.6599 13.4955 62.8094 13.4954 61.959 13.1307C61.1086 12.8875 60.3797 12.2797 59.7722 11.5502C59.1648 10.8207 58.6788 9.84805 58.4359 8.63225C58.1929 7.41644 58.1929 6.44379 58.3144 5.47115C58.5573 4.4985 58.9218 3.76903 59.5292 3.16112C60.1367 2.55322 60.9871 2.0669 61.8375 1.94532C62.445 1.82374 62.9309 1.82373 63.4169 1.82373C63.9028 1.82373 64.3888 1.9453 64.8747 2.18846C65.3607 2.43162 65.7252 2.67479 66.0896 3.03954C66.8186 3.2827 67.0615 3.76903 67.3045 4.37693Z" fill="#2E312B"/>
<path d="M72.65 11.5502L72.0425 0.243139L75.8087 0C76.6591 0 77.388 0.121566 77.9955 0.364727C78.6029 0.607888 78.9674 0.972629 79.3318 1.58053C79.5748 2.06685 79.8178 2.67475 79.8178 3.28265C79.8178 3.89056 79.6963 4.49846 79.4533 5.10636C79.2104 5.59268 78.8459 6.079 78.2384 6.32217C77.7525 6.68691 77.0235 6.80849 76.0516 6.93007L73.0144 7.05166L72.8929 5.83585L75.9301 5.71426C76.5376 5.71426 77.0236 5.5927 77.388 5.34954C77.7525 5.10638 77.9955 4.8632 78.117 4.49846C78.2384 4.13372 78.3599 3.76897 78.3599 3.28265C78.3599 2.79633 78.2384 2.43159 77.9955 2.06685C77.7525 1.70211 77.5095 1.45897 77.145 1.33739C76.7806 1.21581 76.2946 1.09422 75.6872 1.09422L73.2574 1.21581L73.7434 11.307L72.65 11.5502ZM77.7525 6.20061L80.7897 11.0638L79.2103 11.1854L76.1731 6.32217L77.7525 6.20061Z" fill="#2E312B"/>
<path d="M94.1533 6.6867C94.0319 7.90251 93.6674 8.87515 93.1815 9.72621C92.6955 10.5773 91.9666 11.1852 91.2376 11.5499C90.3872 11.9147 89.5368 12.0362 88.5649 11.9146C87.593 11.7931 86.7426 11.4283 86.1352 10.942C85.4062 10.3341 84.9203 9.60461 84.6773 8.75355C84.3128 7.7809 84.3128 6.80829 84.4343 5.59248C84.5558 4.37668 84.9203 3.40403 85.4062 2.55297C85.8922 1.70191 86.6211 1.094 87.35 0.729262C88.2005 0.36452 89.0508 0.242917 90.0228 0.364498C90.9947 0.486078 91.8451 0.850842 92.4525 1.33716C93.06 1.82349 93.6674 2.67454 93.9104 3.5256C94.2749 4.49824 94.2748 5.59248 94.1533 6.6867ZM92.817 6.56511C92.9385 5.59247 92.817 4.7414 92.6955 4.01191C92.4525 3.28243 92.0881 2.79612 91.6021 2.30979C91.1162 1.94505 90.5087 1.70188 89.7798 1.5803C89.0509 1.45872 88.4434 1.58032 87.836 1.82348C87.2285 2.06664 86.7426 2.55297 86.3781 3.16087C86.0136 3.76878 85.7707 4.61984 85.6492 5.59248C85.5277 6.56513 85.6492 7.41616 85.7707 8.14565C86.0136 8.87513 86.3781 9.36148 86.8641 9.8478C87.35 10.2125 87.9574 10.4557 88.6864 10.5773C89.4153 10.6988 90.0228 10.5773 90.6302 10.3341C91.2376 10.091 91.7236 9.60463 92.0881 8.99672C92.4525 8.38882 92.6955 7.53776 92.817 6.56511Z" fill="#2E312B"/>
<path d="M97.0691 13.2523L100.349 2.43164L101.686 2.79637L98.7699 12.4012L103.751 13.9818L103.386 15.1976L97.0691 13.2523Z" fill="#2E312B"/>
<path d="M106.788 16.5349L111.648 6.32214L112.863 6.93005L108.489 16.0486L113.227 18.3586L112.741 19.4529L106.788 16.5349Z" fill="#2E312B"/>
<path d="M126.712 16.2918L127.441 15.3192L134.002 20.6687L133.273 21.6413L130.478 19.3313L124.039 27.1124L122.946 26.2614L129.385 18.4802L126.712 16.2918Z" fill="#2E312B"/>
<path d="M139.59 35.1368C138.74 35.8663 137.768 36.4742 136.796 36.7173C135.824 36.9605 134.973 36.9605 134.123 36.7173C133.273 36.4742 132.544 35.9879 131.936 35.2584C131.329 34.5289 130.964 33.6778 130.843 32.8268C130.721 31.9757 130.843 31.1246 131.207 30.152C131.572 29.3009 132.179 28.4498 133.151 27.5988C134.001 26.8693 134.973 26.2614 135.945 26.0182C136.917 25.7751 137.768 25.7751 138.618 26.0182C139.468 26.2614 140.197 26.7477 140.805 27.4772C141.412 28.2067 141.777 29.0578 141.898 29.9088C142.02 30.7599 141.898 31.6109 141.534 32.5836C141.169 33.5562 140.562 34.4073 139.59 35.1368ZM138.74 34.1642C139.468 33.5563 139.954 32.8268 140.319 32.2189C140.562 31.4894 140.683 30.8815 140.562 30.2736C140.44 29.6657 140.197 29.0578 139.711 28.5714C139.225 28.0851 138.74 27.7204 138.132 27.4772C137.525 27.2341 136.796 27.2341 136.067 27.4772C135.338 27.7204 134.609 28.0851 133.88 28.693C133.151 29.3009 132.665 30.0304 132.301 30.6383C132.058 31.3678 131.936 31.9757 132.058 32.5836C132.179 33.1915 132.422 33.7994 132.908 34.2857C133.394 34.772 133.88 35.1368 134.487 35.38C135.095 35.6231 135.824 35.6231 136.553 35.38C137.282 35.1368 138.011 34.7721 138.74 34.1642Z" fill="#2E312B"/>
<path d="M142.02 50.2127L140.562 47.0516L150.767 42.31L152.346 45.5927C152.832 46.5653 152.954 47.538 152.954 48.389C152.832 49.2401 152.589 50.0912 151.982 50.8206C151.374 51.5501 150.524 52.158 149.552 52.6443C148.459 53.1307 147.487 53.3738 146.515 53.3738C145.543 53.3738 144.692 53.1307 143.964 52.5228C143.113 52.0364 142.506 51.1854 142.02 50.2127ZM142.141 47.7811L142.992 49.6048C143.356 50.4559 143.842 51.0638 144.45 51.4285C145.057 51.7933 145.664 52.0364 146.393 52.0364C147.122 52.0364 147.851 51.7933 148.702 51.4285C149.552 51.0638 150.159 50.5775 150.645 49.9696C151.131 49.3617 151.374 48.7538 151.496 48.1459C151.617 47.4164 151.374 46.6869 151.01 45.9574L150.038 44.0121L142.141 47.7811Z" fill="#2E312B"/>
<path d="M156.598 56.6565L145.786 60.0608L145.421 58.7234L156.234 55.3192L156.598 56.6565Z" fill="#2E312B"/>
<path d="M156.477 68.693C156.963 68.5714 157.449 68.2067 157.57 67.7203C157.813 67.234 157.813 66.6261 157.692 65.8966C157.57 65.4103 157.449 65.0456 157.206 64.6808C156.963 64.3161 156.72 64.0729 156.355 63.9514C155.991 63.8298 155.748 63.7082 155.383 63.8298C155.14 63.8298 154.897 63.9513 154.654 64.1945C154.412 64.3161 154.29 64.5592 154.169 64.8024C154.047 65.0456 154.047 65.2887 153.926 65.5319C153.926 65.7751 153.804 66.0182 153.804 66.2614L153.683 67.4772C153.683 67.7204 153.561 68.0851 153.561 68.4498C153.44 68.8146 153.318 69.1793 153.197 69.544C153.075 69.9088 152.832 70.2735 152.468 70.5167C152.103 70.7599 151.739 71.003 151.253 71.1246C150.645 71.2462 150.038 71.1246 149.552 71.003C149.066 70.7599 148.58 70.3951 148.094 69.7872C147.73 69.3009 147.365 68.5714 147.244 67.7203C147.122 66.8693 147.122 66.2614 147.244 65.5319C147.365 64.924 147.73 64.4377 148.094 63.9514C148.459 63.5866 148.945 63.2219 149.552 63.1003L149.795 64.4377C149.43 64.5593 149.066 64.8024 148.823 65.0456C148.58 65.2887 148.459 65.6535 148.337 66.1398C148.216 66.5045 148.337 66.9909 148.337 67.3556C148.459 67.8419 148.58 68.3283 148.823 68.693C149.066 69.0577 149.309 69.3009 149.673 69.544C150.038 69.7872 150.402 69.7872 150.767 69.6656C151.131 69.544 151.374 69.4225 151.617 69.1793C151.86 68.9362 151.982 68.5714 151.982 68.2067C152.103 67.8419 152.103 67.4772 152.103 66.9909L152.225 65.5319C152.346 64.5593 152.589 63.8298 152.954 63.2219C153.318 62.614 153.926 62.2492 154.654 62.1277C155.262 62.0061 155.869 62.1276 156.355 62.3708C156.841 62.614 157.327 62.9787 157.692 63.5866C158.056 64.0729 158.299 64.6808 158.421 65.4103C158.542 66.1398 158.542 66.7477 158.421 67.3556C158.299 67.9635 158.056 68.4498 157.57 68.8146C157.206 69.1793 156.72 69.544 156.112 69.6656L156.477 68.693Z" fill="#2E312B"/>
<path d="M156.598 84.2553V82.9179C156.963 82.7963 157.327 82.6748 157.57 82.4316C157.813 82.1884 158.056 81.9453 158.299 81.7021C158.542 81.4589 158.664 81.0942 158.785 80.7295C158.907 80.3647 158.907 80 158.907 79.6353C158.907 78.9058 158.664 78.2979 158.299 77.8116C157.935 77.2037 157.449 76.8389 156.72 76.4742C155.991 76.1094 155.262 75.9878 154.29 75.9878C153.318 75.9878 152.468 76.231 151.86 76.4742C151.253 76.8389 150.645 77.2037 150.402 77.8116C150.038 78.4195 149.916 79.0274 149.916 79.6353C149.916 80 150.038 80.3647 150.038 80.7295C150.159 81.0942 150.281 81.3374 150.524 81.7021C150.767 81.9453 151.01 82.1884 151.253 82.4316C151.496 82.6748 151.86 82.7964 152.346 82.7964V84.1337C151.739 84.0121 151.253 83.8906 150.767 83.6474C150.281 83.4042 149.916 83.0395 149.552 82.6748C149.188 82.31 148.945 81.8237 148.823 81.3374C148.702 80.8511 148.58 80.2432 148.58 79.7568C148.58 78.7842 148.823 77.9331 149.188 77.2037C149.673 76.4742 150.281 75.8663 151.131 75.3799C151.982 74.8936 153.075 74.6505 154.169 74.6505C155.383 74.6505 156.355 74.772 157.206 75.2584C158.056 75.6231 158.785 76.231 159.271 76.9605C159.757 77.69 160 78.541 160 79.5137C160 80.1216 159.878 80.6079 159.757 81.0942C159.635 81.5805 159.393 82.0669 159.028 82.4316C158.664 82.7963 158.299 83.1611 157.935 83.5258C157.692 83.8906 157.206 84.1337 156.598 84.2553Z" fill="#2E312B"/>
<path d="M152.346 98.3587C151.131 98.1155 150.159 97.7508 149.431 97.1429C148.702 96.535 148.094 95.8055 147.73 95.076C147.365 94.2249 147.365 93.3739 147.487 92.4012C147.608 91.4286 148.094 90.6991 148.702 89.9696C149.309 89.3617 150.038 88.8754 151.01 88.6322C151.982 88.3891 152.954 88.3891 154.169 88.5106C155.383 88.7538 156.355 89.1185 157.084 89.7264C157.813 90.3344 158.421 91.0639 158.785 91.7933C159.15 92.6444 159.15 93.4954 159.028 94.4681C158.907 95.4407 158.421 96.1702 157.813 96.8997C157.206 97.5076 156.477 97.9939 155.505 98.2371C154.533 98.4802 153.44 98.6018 152.346 98.3587ZM152.589 97.0213C153.561 97.1429 154.412 97.1429 155.14 97.0213C155.869 96.7781 156.477 96.535 156.841 96.0487C157.327 95.5623 157.57 94.9544 157.692 94.3465C157.813 93.617 157.813 93.0091 157.57 92.4012C157.327 91.7933 156.963 91.307 156.355 90.8207C155.748 90.3343 155.019 90.0912 154.047 89.848C153.075 89.7265 152.225 89.7265 151.496 89.848C150.767 90.0912 150.159 90.3343 149.795 90.8207C149.309 91.307 149.066 91.9149 148.945 92.5228C148.823 93.2523 148.823 93.8602 149.066 94.4681C149.309 95.076 149.674 95.5623 150.281 96.0487C150.767 96.535 151.617 96.8997 152.589 97.0213Z" fill="#2E312B"/>
<path d="M156.234 104.681L146.15 104.559V104.681L153.926 111.125L153.44 112.462L144.328 104.681L144.814 103.343H156.841L156.234 104.681Z" fill="#2E312B"/>
<path d="M141.291 111.368L151.131 116.96L147.73 122.918L146.636 122.31L149.309 117.568L146.029 115.623L143.478 120L142.384 119.392L144.935 115.015L141.655 113.07L138.861 117.812L137.768 117.204L141.291 111.368Z" fill="#2E312B"/>
<path d="M136.31 127.903L130.6 126.808L131.572 125.593L137.282 126.687L136.31 127.903ZM135.702 120.486L144.45 127.66L142.02 130.577C141.412 131.307 140.926 131.672 140.319 132.036C139.711 132.28 139.104 132.401 138.618 132.28C138.011 132.158 137.525 131.915 137.039 131.429C136.553 130.942 136.188 130.577 135.945 129.97C135.702 129.483 135.702 128.875 135.824 128.267C135.945 127.66 136.31 127.052 136.796 126.322L138.74 123.891L139.711 124.62L137.768 126.93C137.403 127.416 137.16 127.781 137.039 128.267C136.917 128.632 136.917 128.997 137.16 129.362C137.403 129.726 137.525 129.97 137.889 130.334C138.254 130.577 138.618 130.821 138.983 130.942C139.347 131.064 139.711 130.942 140.076 130.821C140.44 130.699 140.805 130.334 141.169 129.848L142.627 128.024L134.852 121.702L135.702 120.486Z" fill="#2E312B"/>
<path d="M125.133 138.237L126.591 140.182L127.441 137.872L128.413 138.237L127.32 140.426L129.749 140.061L129.871 141.155L127.441 141.398L129.02 143.222L128.17 143.83L126.712 141.884L125.862 144.195L124.89 143.83L125.983 141.641L123.554 142.006L123.432 140.912L125.862 140.669L124.282 138.845L125.133 138.237Z" fill="#2E312B"/>
<path d="M108.853 151.733C109.096 152.219 109.582 152.462 110.068 152.584C110.676 152.705 111.162 152.584 111.891 152.34C112.377 152.097 112.741 151.854 112.984 151.611C113.227 151.368 113.47 151.003 113.47 150.638C113.591 150.274 113.47 149.909 113.348 149.666C113.227 149.423 113.106 149.179 112.863 149.058C112.62 148.936 112.377 148.815 112.134 148.815C111.891 148.815 111.648 148.815 111.283 148.815C111.04 148.815 110.797 148.815 110.554 148.936L109.339 149.058C109.096 149.058 108.732 149.179 108.367 149.179C108.003 149.179 107.639 149.179 107.153 149.058C106.667 148.936 106.424 148.815 106.059 148.571C105.695 148.328 105.452 147.964 105.209 147.477C104.966 146.869 104.844 146.383 104.966 145.775C105.087 145.167 105.33 144.681 105.816 144.195C106.302 143.708 106.91 143.222 107.639 142.857C108.367 142.492 109.096 142.371 109.704 142.371C110.311 142.371 110.919 142.492 111.405 142.857C111.891 143.1 112.255 143.587 112.62 144.073L111.405 144.559C111.162 144.195 110.919 143.951 110.554 143.708C110.19 143.587 109.825 143.465 109.461 143.587C109.096 143.587 108.61 143.708 108.246 143.951C107.76 144.195 107.396 144.438 107.031 144.802C106.667 145.167 106.545 145.532 106.424 145.897C106.302 146.261 106.302 146.626 106.545 146.991C106.667 147.356 106.91 147.599 107.153 147.72C107.396 147.842 107.76 147.964 108.124 147.964C108.489 147.964 108.853 147.964 109.339 147.842L110.797 147.599C111.648 147.477 112.498 147.477 113.106 147.72C113.713 147.964 114.199 148.45 114.563 149.058C114.806 149.666 114.928 150.152 114.806 150.76C114.685 151.368 114.442 151.854 113.956 152.34C113.47 152.827 112.984 153.191 112.377 153.435C111.769 153.678 111.04 153.921 110.433 153.921C109.825 153.921 109.218 153.799 108.732 153.435C108.246 153.191 107.882 152.705 107.639 152.219L108.853 151.733Z" fill="#2E312B"/>
<path d="M93.6674 155.502L95.0038 155.137C95.1253 155.502 95.3683 155.745 95.6112 155.988C95.8542 156.231 96.2187 156.474 96.4617 156.596C96.8261 156.717 97.0691 156.839 97.4336 156.839C97.798 156.839 98.1625 156.839 98.527 156.717C99.1344 156.596 99.7418 156.231 100.228 155.745C100.714 155.258 100.957 154.65 101.2 153.921C101.321 153.191 101.321 152.34 101.078 151.368C100.835 150.395 100.471 149.666 99.9848 149.058C99.4989 148.45 99.0129 148.085 98.284 147.842C97.6766 147.599 97.0691 147.599 96.3402 147.72C95.9757 147.842 95.6112 147.964 95.3682 148.085C95.0038 148.328 94.7608 148.45 94.5179 148.815C94.2749 149.058 94.1534 149.422 94.0319 149.666C93.9104 150.03 93.9104 150.395 93.9104 150.76L92.574 151.125C92.574 150.517 92.574 150.03 92.6955 149.544C92.817 149.058 93.06 148.571 93.4245 148.207C93.7889 147.842 94.1534 147.477 94.5179 147.234C95.0038 146.991 95.4897 146.748 95.9757 146.626C96.9476 146.383 97.798 146.383 98.6484 146.748C99.4989 146.991 100.228 147.477 100.835 148.328C101.443 149.058 101.929 150.03 102.172 151.125C102.415 152.34 102.536 153.313 102.293 154.286C102.05 155.258 101.686 155.988 101.078 156.717C100.471 157.325 99.7418 157.812 98.7699 158.055C98.1625 158.176 97.6765 158.298 97.1906 158.176C96.7046 158.176 96.2187 158.055 95.7327 157.812C95.2468 157.568 94.8823 157.325 94.5179 156.96C94.1534 156.474 93.7889 156.109 93.6674 155.502Z" fill="#2E312B"/>
<path d="M83.2195 153.799L80.0608 148.936L81.6401 148.815L84.6773 153.678L83.2195 153.799ZM88.2005 148.45L88.9294 159.757L85.1633 160C84.3129 160 83.5839 160 82.9765 159.635C82.3691 159.392 82.0046 159.027 81.6401 158.541C81.2757 158.055 81.1542 157.447 81.1542 156.839C81.1542 156.231 81.1542 155.623 81.3971 155.015C81.6401 154.529 82.0046 154.043 82.612 153.678C83.098 153.313 83.8269 153.191 84.6773 153.07L87.7145 152.827L87.836 154.043L84.7988 154.286C84.1914 154.286 83.7054 154.407 83.341 154.65C82.9765 154.894 82.7335 155.137 82.612 155.501C82.4905 155.866 82.3691 156.231 82.4906 156.717C82.4906 157.204 82.612 157.568 82.855 157.933C83.098 158.298 83.341 158.541 83.7054 158.663C84.0699 158.784 84.5558 158.906 85.1633 158.784L87.593 158.663L86.9856 148.571L88.2005 148.45Z" fill="#2E312B"/>
<path d="M66.8185 153.435C66.94 152.219 67.3045 151.246 67.7904 150.395C68.2764 149.544 69.0053 148.936 69.7343 148.571C70.5847 148.207 71.4351 148.085 72.407 148.207C73.3789 148.328 74.2293 148.693 74.8367 149.179C75.5657 149.787 76.0516 150.517 76.4161 151.368C76.7806 152.219 76.902 153.313 76.6591 154.529C76.5376 155.745 76.1731 156.717 75.6872 157.568C75.2012 158.419 74.4723 159.027 73.7433 159.392C72.8929 159.757 72.0425 159.878 71.0706 159.757C70.0987 159.635 69.2483 159.271 68.6408 158.784C67.9119 158.176 67.426 157.447 67.0615 156.596C66.697 155.623 66.697 154.65 66.8185 153.435ZM68.0334 153.556C67.9119 154.529 68.0334 155.38 68.2764 156.109C68.5194 156.839 68.8838 157.325 69.3698 157.812C69.8557 158.176 70.4632 158.419 71.1921 158.541C71.921 158.663 72.5285 158.541 73.1359 158.176C73.7433 157.933 74.2293 157.447 74.5938 156.839C74.9582 156.231 75.2012 155.38 75.3227 154.407C75.4442 153.435 75.3227 152.584 75.0797 151.854C74.8367 151.125 74.4723 150.638 73.9863 150.152C73.5004 149.787 72.8929 149.544 72.164 149.422C71.4351 149.301 70.8276 149.422 70.2202 149.787C69.6128 150.03 69.1268 150.517 68.7623 151.125C68.3979 151.732 68.1549 152.584 68.0334 153.556Z" fill="#2E312B"/>
<path d="M63.7813 146.869L60.6227 157.69L59.2863 157.325L62.0805 147.599L57.0995 146.14L57.464 144.924L63.7813 146.869Z" fill="#2E312B"/>
<path d="M54.0623 143.83L49.3242 154.043L48.1094 153.435L52.3614 144.316L47.6234 142.128L48.1094 141.033L54.0623 143.83Z" fill="#2E312B"/>
<path d="M34.1382 144.316L33.4092 145.289L26.8489 139.939L27.5778 138.967L30.372 141.155L36.6894 133.252L37.7828 134.103L31.4655 142.006L34.1382 144.316Z" fill="#2E312B"/>
<path d="M21.0175 125.593C21.8679 124.863 22.8398 124.255 23.8117 124.012C24.7836 123.769 25.634 123.769 26.4844 124.012C27.3349 124.255 28.0638 124.742 28.6712 125.471C29.2786 126.201 29.6431 126.93 29.8861 127.903C30.0076 128.754 29.8861 129.605 29.5216 130.577C29.1572 131.429 28.5497 132.28 27.5778 133.131C26.7274 133.86 25.7555 134.468 24.7836 134.711C23.8117 134.954 22.9613 134.954 22.1109 134.711C21.2604 134.468 20.5315 133.982 19.9241 133.252C19.3166 132.523 18.9522 131.793 18.7092 130.821C18.5877 129.97 18.7092 129.119 19.0736 128.146C19.4381 127.173 20.0456 126.322 21.0175 125.593ZM21.8679 126.565C21.1389 127.173 20.653 127.903 20.2885 128.632C20.0456 129.362 19.924 129.97 20.0455 130.577C20.167 131.185 20.41 131.793 20.896 132.28C21.3819 132.766 21.8679 133.131 22.4753 133.374C23.0827 133.617 23.8117 133.495 24.5406 133.374C25.2695 133.131 25.9985 132.766 26.7274 132.158C27.4563 131.55 27.9423 130.821 28.3068 130.091C28.5497 129.362 28.6712 128.754 28.5497 128.146C28.4282 127.538 28.1853 126.93 27.6993 126.444C27.2134 125.957 26.7274 125.593 26.1199 125.35C25.5125 125.106 24.7836 125.228 24.0547 125.35C23.3257 125.471 22.5968 125.957 21.8679 126.565Z" fill="#2E312B"/>
<path d="M18.4662 110.517L19.9241 113.678L9.71907 118.541L8.13974 115.38C7.65379 114.407 7.41081 113.435 7.5323 112.584C7.65379 111.733 7.89675 110.881 8.50419 110.152C9.11163 109.422 9.84056 108.815 10.934 108.328C12.0274 107.842 12.9993 107.599 13.9712 107.599C14.9431 107.599 15.7935 107.842 16.5224 108.45C17.2514 108.815 17.9803 109.544 18.4662 110.517ZM18.2232 112.948L17.3729 111.125C17.0084 110.274 16.5224 109.666 15.915 109.301C15.3075 108.936 14.7001 108.693 13.9712 108.693C13.2422 108.693 12.5133 108.936 11.6629 109.301C10.8125 109.666 10.205 110.152 9.71907 110.76C9.23312 111.368 8.99018 111.976 8.99018 112.584C8.99018 113.191 9.11166 114.043 9.47612 114.772L10.448 116.717L18.2232 112.948Z" fill="#2E312B"/>
<path d="M3.76611 104.316L14.4571 100.79L14.943 102.128L4.25206 105.654L3.76611 104.316Z" fill="#2E312B"/>
<path d="M3.76613 92.2797C3.28018 92.4012 2.91572 92.766 2.67275 93.3739C2.42977 93.8602 2.42976 94.4681 2.55125 95.1976C2.67274 95.6839 2.79422 96.0486 3.0372 96.4134C3.28017 96.7781 3.52317 97.0213 3.88763 97.1429C4.2521 97.2645 4.49506 97.386 4.85952 97.2645C5.1025 97.2645 5.34548 97.1429 5.58846 96.8997C5.83143 96.6565 5.95295 96.535 5.95295 96.2918C6.07443 96.0486 6.07441 95.8055 6.1959 95.5623C6.1959 95.3192 6.3174 95.076 6.3174 94.8329L6.43889 93.617C6.43889 93.3739 6.56039 93.0091 6.56039 92.6444C6.68187 92.2796 6.68186 91.9149 6.92484 91.5502C7.04632 91.1854 7.28931 90.8207 7.65377 90.5775C8.01824 90.3344 8.3827 90.0912 8.86866 89.9696C9.4761 89.848 10.0835 89.8481 10.5695 90.0912C11.0554 90.3344 11.5414 90.6991 12.0274 91.1854C12.3918 91.6718 12.7563 92.4012 12.8778 93.2523C12.9992 94.1033 12.9992 94.7113 12.8778 95.4408C12.7563 96.0487 12.5133 96.535 12.0274 97.0213C11.6629 97.386 11.1769 97.7508 10.5695 97.8724L10.3265 96.535C10.691 96.4134 11.0554 96.1702 11.2984 95.9271C11.5414 95.6839 11.6629 95.3192 11.6629 94.8329C11.6629 94.4681 11.6629 93.9818 11.6629 93.617C11.5414 93.1307 11.4199 92.6444 11.1769 92.2797C10.9339 91.9149 10.691 91.6717 10.3265 91.4286C9.96203 91.307 9.59757 91.1854 9.2331 91.307C8.86864 91.4286 8.62569 91.5502 8.38271 91.7933C8.13973 92.0365 8.01822 92.4012 8.01822 92.766C7.89673 93.1307 7.89673 93.4954 7.89673 93.9818L7.77527 95.4408C7.65378 96.4134 7.53229 97.1429 7.16783 97.7508C6.80336 98.3587 6.19589 98.7234 5.46696 98.845C4.85952 98.9666 4.25209 98.845 3.76613 98.6019C3.28018 98.3587 2.79422 97.9939 2.42976 97.5076C2.06529 97.0213 1.82235 96.4134 1.70086 95.6839C1.57937 94.9544 1.57937 94.3465 1.70086 93.7386C1.82235 93.1307 2.06529 92.6444 2.42976 92.1581C2.79422 91.7933 3.28019 91.4286 3.88763 91.307L3.76613 92.2797Z" fill="#2E312B"/>
<path d="M3.40169 76.5958V77.9332C3.03723 78.0547 2.67274 78.1763 2.42976 78.4195C2.18679 78.6626 1.94384 78.9058 1.70086 79.149C1.45789 79.3921 1.33637 79.7569 1.21488 80.1216C1.09339 80.4863 1.09342 80.8511 1.09342 81.2158C1.09342 81.9453 1.3364 82.5532 1.70086 83.0395C2.06533 83.6474 2.55127 84.0122 3.2802 84.3769C4.00913 84.7417 4.73806 84.8632 5.70996 84.8632C6.68187 84.8632 7.53228 84.6201 8.13973 84.3769C8.74717 84.1338 9.35462 83.6474 9.5976 83.0395C9.96206 82.4316 10.0835 81.8237 10.0835 81.2158C10.0835 80.8511 9.96205 80.4863 9.96205 80.1216C9.84056 79.7569 9.71908 79.5137 9.4761 79.149C9.23313 78.9058 8.99014 78.6626 8.74717 78.4195C8.50419 78.1763 8.13973 78.0547 7.65378 78.0547V76.7174C8.26122 76.8389 8.74716 76.9605 9.23311 77.2037C9.71907 77.4468 10.0835 77.8116 10.448 78.1763C10.8125 78.541 11.0554 79.0274 11.1769 79.5137C11.2984 80 11.4199 80.4863 11.4199 81.0942C11.4199 82.0669 11.1769 82.9179 10.8125 83.6474C10.3265 84.3769 9.71908 84.9848 8.86866 85.4711C8.01824 85.9575 6.92485 86.2006 5.83146 86.2006C4.61657 86.2006 3.64467 86.079 2.79425 85.5927C1.94383 85.1064 1.21489 84.6201 0.728937 83.8906C0.242984 83.1611 0 82.31 0 81.3374C0 80.7295 0.121503 80.2432 0.242991 79.7569C0.36448 79.2705 0.607463 78.7842 0.971928 78.4195C1.33639 78.0547 1.70085 77.69 2.06531 77.3253C2.30829 76.9605 2.91574 76.7173 3.40169 76.5958Z" fill="#2E312B"/>
<path d="M7.53229 62.4924C8.74718 62.7355 9.71908 63.1003 10.448 63.5866C11.1769 64.1945 11.7844 64.8024 12.1488 65.6535C12.5133 66.5045 12.6348 67.3556 12.3918 68.3282C12.2703 69.3009 11.9059 70.0303 11.2984 70.7598C10.691 71.3677 9.96207 71.8541 8.99017 72.2188C8.01826 72.462 7.04635 72.5836 5.83147 72.3404C4.61658 72.0972 3.64469 71.7325 2.91576 71.2462C2.18683 70.6383 1.57936 70.0304 1.21489 69.1793C0.850427 68.3282 0.728961 67.4772 0.971937 66.5045C1.09343 65.5319 1.45788 64.8024 2.06532 64.0729C2.67276 63.465 3.40169 62.9787 4.37359 62.614C5.3455 62.2492 6.31741 62.3708 7.53229 62.4924ZM7.2893 63.8298C6.3174 63.7082 5.46701 63.7082 4.73808 63.9513C4.00915 64.1945 3.40168 64.5592 3.03721 65.0456C2.55126 65.5319 2.30831 66.1398 2.18682 66.7477C2.06533 67.3556 2.1868 68.0851 2.42977 68.693C2.67275 69.3009 3.15871 69.7872 3.76615 70.2735C4.37359 70.7598 5.10251 71.003 6.07442 71.1246C7.04633 71.2462 7.89675 71.2462 8.62568 71.003C9.35461 70.7598 9.96204 70.3951 10.3265 69.9088C10.8125 69.4225 11.0555 68.8146 11.1769 68.2067C11.2984 67.4772 11.1769 66.8693 10.9339 66.2614C10.691 65.6535 10.205 65.1671 9.59761 64.6808C9.11166 64.3161 8.26121 64.0729 7.2893 63.8298Z" fill="#2E312B"/>
<path d="M3.52321 56.1702H13.6067V56.0486L5.83148 49.7264L6.31743 48.389L15.5505 56.0486L15.0646 57.386L3.03723 57.5076L3.52321 56.1702Z" fill="#2E312B"/>
<path d="M18.3447 49.3617L8.50415 43.8906L11.7843 37.9331L12.8777 38.541L10.205 43.2827L13.4852 45.1064L15.9149 40.6079L17.0083 41.2158L14.5786 45.7143L17.9803 47.538L20.653 42.6748L21.7464 43.2827L18.3447 49.3617Z" fill="#2E312B"/>
<path d="M23.9332 40.1216L15.0646 33.0699L17.3728 30.0304C17.9803 29.3009 18.4662 28.8146 19.0737 28.5714C19.6811 28.3283 20.2885 28.2067 20.7745 28.3283C21.3819 28.4499 21.8679 28.693 22.4753 29.0578C22.9613 29.4225 23.3258 29.9088 23.5688 30.5167C23.8117 31.0031 23.8117 31.611 23.6902 32.2189C23.5687 32.8268 23.2043 33.5563 22.7183 34.1642L20.7745 36.5958L19.8026 35.8663L21.7464 33.4347C22.1109 32.9483 22.3538 32.5836 22.4753 32.0973C22.5968 31.7325 22.4754 31.3678 22.3539 31.0031C22.2324 30.6383 21.9894 30.3951 21.6249 30.0304C21.2605 29.7872 20.896 29.5441 20.5315 29.5441C20.1671 29.4225 19.8026 29.5441 19.4381 29.6657C19.0737 29.7872 18.7092 30.152 18.3447 30.6383L16.8869 32.5836L24.7836 38.7842L23.9332 40.1216ZM23.2043 32.8268L28.9142 33.7994L27.9423 35.0152L22.2324 34.0426L23.2043 32.8268Z" fill="#2E312B"/>
<path d="M34.1382 22.2492L32.6804 20.3039L31.8299 22.614L30.8581 22.2492L31.8299 20.0608L29.4002 20.5471L29.2787 19.4529L31.7085 19.2097L30.1291 17.386L30.9795 16.7781L32.4374 18.7234L33.2878 16.4134L34.2597 16.7781L33.2878 18.9666L35.7176 18.4802L35.839 19.5745L33.4093 19.8176L34.9886 21.6413L34.1382 22.2492Z" fill="#2E312B"/>
</svg>
