<svg width="63" height="36" viewBox="0 0 63 36" fill="none" xmlns="http://www.w3.org/2000/svg">
<path fill-rule="evenodd" clip-rule="evenodd" d="M42.0307 0.00827644L42.1437 0.00647461C52.1387 -0.164796 62.1839 2.99246 62.1839 17.7829C62.1839 32.0958 53.5651 35.2756 44.0179 35.542V35.5457H43.878C43.3026 35.56 42.7239 35.564 42.1437 35.5593L40.7882 35.5457H31.0952V34.8895C33.2154 34.8895 34.7297 33.7284 34.7297 29.6396V29.5282C34.7277 29.5001 34.7255 29.4719 34.7232 29.4436V5.86977C34.7232 5.77526 34.7255 5.68199 34.7297 5.58995V1.92649L22.5138 36H21.908L7.82429 5.10668V22.9763C7.82429 28.8319 8.68244 34.8895 14.2856 34.8895V35.5457H0V34.8895C6.25943 34.8895 7.16806 28.6805 7.16806 22.9763V3.99614C5.37877 0.935523 3.06243 0.773733 1.77587 0.683871C1.68316 0.677396 1.59581 0.671294 1.51438 0.664508V0.00827644H11.5598L24.6844 28.5795L34.7297 0.00827644H42.0307ZM43.4292 0.668597C48.9068 0.858445 56.1264 2.69397 56.1264 17.7829C56.1264 32.8075 49.2699 34.6651 43.9224 34.8887C41.787 34.8548 39.7777 33.6684 39.7777 29.6396V5.10668C39.7777 1.79915 41.3712 0.741288 43.4292 0.668597Z" fill="#4F3002"/>
</svg>
