<svg width="60" height="36" viewBox="0 0 60 36" fill="none" xmlns="http://www.w3.org/2000/svg">
<path fill-rule="evenodd" clip-rule="evenodd" d="M28.4049 24.1948V5.46438C28.4049 4.17938 28.3035 3.24945 28.1006 2.67459C27.9315 2.09972 27.5764 1.71084 27.0354 1.50794C26.5281 1.30505 25.7166 1.16978 24.6007 1.10215V0.087681C26.0209 0.189127 28.0668 0.239849 30.7382 0.239849H32.3106L34.3396 0.189128C37.1125 0.121497 39.0907 0.087681 40.2742 0.087681C46.8683 0.087681 51.8054 1.59248 55.0855 4.60208C58.3657 7.57787 60.0057 11.9232 60.0057 17.6381C60.0057 21.324 59.1942 24.5534 57.571 27.3263C55.9817 30.0653 53.6653 32.1957 50.6219 33.7174C47.6123 35.2391 44.0109 36 39.8177 36H36.6878C34.7191 35.9969 33.2866 35.9969 32.4073 35.9969H27.0562L26.9102 35.8247L4.97091 8.11578V27.5936C4.97091 29.5888 5.07236 31.0598 5.27526 32.0066C5.47815 32.9196 5.91776 33.5959 6.59407 34.0355C7.27039 34.4413 8.3694 34.7288 9.8911 34.8978V35.9907C8.56383 35.9907 6.72318 35.9907 4.38989 35.9907C2.53003 35.9907 1.10424 35.9907 0 35.9907V34.8978C1.11592 34.7288 1.9275 34.4413 2.43473 34.0355C2.97579 33.6298 3.33085 32.9873 3.49993 32.108C3.70282 31.2288 3.80427 29.9269 3.80427 28.2023V5.3767C3.80427 4.0917 3.70282 3.16177 3.49993 2.58691C3.33085 2.01204 2.97579 1.62316 2.43473 1.42026C1.9275 1.21737 1.11592 1.0821 0 1.01447V0C1.0821 0.101446 2.55309 0.152168 4.41295 0.152168C6.10374 0.152168 7.55782 0.101446 8.77519 0L28.4049 24.1948ZM37.8395 1.35577C38.3806 1.11906 39.1752 1.0007 40.2235 1.0007C44.2476 1.0007 47.1388 2.37024 48.8973 5.10932C50.6895 7.81458 51.5856 12.0585 51.5856 17.8409C51.5856 23.6234 50.7233 27.9518 48.9987 30.8262C47.2741 33.6667 44.366 35.087 40.2742 35.087C39.1921 35.087 38.3806 34.9686 37.8395 34.7319C37.3323 34.4952 36.9772 34.0725 36.7743 33.4638C36.5714 32.8551 36.47 31.9421 36.47 30.7247V5.36294C36.47 4.14557 36.5714 3.23254 36.7743 2.62386C36.9772 2.01518 37.3323 1.59248 37.8395 1.35577Z" fill="#4F3002"/>
</svg>
